<svg xmlns="http://www.w3.org/2000/svg" viewBox="0 0 192.756 192.756" id="wolf-logo-svg">
  <!-- NC State Wolfpack Wolf Head - used in animated logo -->
  <g id="wolf-body" fill-rule="evenodd" clip-rule="evenodd">
    <path id="wolf-snout" d="M90.678 17.442c0 2.942-4.637 5.328-10.358 5.328-5.721 0-10.357-2.386-10.357-5.328 0-2.943 4.637-5.328 10.357-5.328 5.721 0 10.358 2.386 10.358 5.328z" fill="#cc0000" stroke="#1a0000" stroke-width="1.579" stroke-miterlimit="2.613"/>
    <path id="wolf-head-top" d="M48.042 31.058c3.115-7.249 16.863-10.573 23.494-12.991 7.529-2.746 15.636-.649 23.43 1.151 6.346 1.466 17.604 8.25 15.866 16.576-2.367 11.361-35.801 7.701-43.783 7.694-4.133-.003-19.25 2.432-21.306-4.172-.661-2.119.048-3.662 1.713-4.706l.586-3.552z" fill="#1a1a1a"/>
    <path id="wolf-face" d="M51.022 61.25c.592-10.656-9.47-26.048-9.47-26.048 43.208-31.376 76.353 8.288 76.353 8.288-10.062 7.104-15.389 27.232-15.389 27.232l-13.449-4.69-8.905-2.969-7.791-1.113-7.049.742-7.197-2.034-4.675-1.676-2.428 2.268z" fill="#cc0000" stroke="#1a0000" stroke-width="1.579" stroke-miterlimit="2.613"/>
    <path id="wolf-markings" d="M65.308 34.061l-.858.227 3.99 15.121-2.845.751-6.27-10.357 2.586 9.799.762-.202.378 1.432-2.909.768-.378-1.432.811-.214-3.613-13.689-.81.214L55.761 35l3.906-1.031 5.873 9.865-2.425-9.193-.811.213-.391-1.478 3.005-.793.39 1.478zM77.979 43.934c-.14 1.701-.579 3.024-1.315 3.969-.737.946-1.67 1.372-2.798 1.279-2.969-.244-4.211-3.312-3.727-9.205.246-2.988.775-5.159 1.588-6.512.813-1.354 1.959-1.97 3.437-1.848.465.038.845.146 1.14.321s.624.49.988.942l.498-.815 1.157.095-.465 5.669-2.163-.178.147-1.794c.088-1.079.049-1.803-.119-2.173-.167-.37-.464-.573-.891-.608-.442-.036-.758.145-.947.541-.19.396-.341 1.288-.455 2.673l-.596 7.266c-.134 1.636-.093 2.749.125 3.339.164.434.476.669.938.707.66.055 1.172-.26 1.536-.943.364-.683.616-1.875.755-3.575l1.204.099-.037.751zM88.463 46.366c-.278 1.341-.857 2.364-1.735 3.068-.878.705-1.873.941-2.982.711-.44-.092-.785-.236-1.034-.435-.248-.198-.489-.51-.724-.938l-.629.675-1.385-.288 1.144-5.507 2.077.432-.204.983c-.459 2.211-.137 3.431.967 3.66.342.071.645-.002.91-.22.266-.217.44-.53.525-.939.167-.802-.048-1.84-.644-3.115-.597-1.275-1.184-2.527-1.763-3.757-.581-1.553-.737-2.975-.469-4.268.251-1.209.776-2.154 1.573-2.832.798-.679 1.678-.918 2.643-.718.425.088.795.251 1.113.489s.654.608 1.01 1.111l.54-.86 1.161.241-1.006 4.845-2.077-.432.246-1.184c.331-1.594.021-2.49-.928-2.687a.857.857 0 0 0-.743.179c-.222.176-.367.436-.439.778-.16.77.068 1.797.682 3.085 1.132 2.385 1.703 3.595 1.713 3.631.578 1.553.73 2.984.458 4.292zM103.674 42.444l-.762-.354-4.354 9.35c-.861 1.851-1.725 3.026-2.589 3.529-.864.502-1.942.451-3.237-.152-1.339-.624-2.142-1.468-2.406-2.533s-.014-2.416.749-4.053l4.461-9.578-.76-.354.646-1.386 4.739 2.208-.646 1.386-.938-.438-4.455 9.564c-.6 1.288-.893 2.188-.88 2.701.013.513.342.92.987 1.221.614.286 1.104.267 1.472-.061.366-.327.875-1.188 1.523-2.581l4.391-9.428-.938-.438.645-1.386 2.996 1.396-.644 1.387z" fill="#1a1a1a"/>
    <path id="wolf-body-lower" d="M163.479 132.883h6.314l.789 2.763s25.648-12.629 6.707-41.835c0 0-11.047-12.629-30.777.79 0 0-15.389.395-20.123 6.315 0 0 3.945-4.736-3.553-3.553 0 0-.395-3.157-6.312-3.552l46.955 39.072z" fill="#fff" stroke="#1a0000" stroke-width="1.579" stroke-miterlimit="2.613"/>
    <path id="wolf-eye" d="M176.109 97.526c-.459 2.458-4.74 3.721-9.559 2.819-4.82-.901-8.355-3.625-7.896-6.083.461-2.458 4.74-3.721 9.561-2.819 4.818.901 8.353 3.624 7.894 6.083z" fill="#1a1a1a"/>
    <path id="wolf-eye-white" d="M159.217 93.384c.988 3.458 6.545 4.903 12.412 3.226s9.822-5.839 8.834-9.297c-.986-3.458-6.545-4.903-12.412-3.227-5.865 1.678-9.822 5.84-8.834 9.298z" fill="#fff" stroke="#1a0000" stroke-width="1.579" stroke-miterlimit="2.613"/>
    <path id="wolf-pupil" d="M170.234 86.205c-3.193-.135-11.232 4.097-6.334 7.519 3.471 2.423 10.416-.502 11.896-3.811-2.211.823-5.457 3.252-7.367.632.574-1.595 1.561-2.518 2.594-3.946l-.789-.394z" fill="#1a1a1a"/>
    <path id="wolf-chest" d="M101.902 95.083S89.158 71.111 67.145 72.271c0 0-6.951 24.357 15.834 32.863 0 .001 5.021-7.732 18.923-10.051z" fill="#fff" stroke="#1a0000" stroke-width="1.579" stroke-miterlimit="2.613"/>
    <path id="wolf-chest-detail" d="M68.277 71.884s0 15.163 8.976 19.051c0 0-3.264-7.777-1.225-9.332 0 0 4.896 9.72 10.201 12.053 0 0 7.752 3.499 12.239-2.721.001 0-8.566-16.718-30.191-19.051z" fill="#1a1a1a"/>
  </g>
</svg>
